<!-- src/assets/icons/restore.svg -->

<!DOCTYPE svg PUBLIC "-//W3C//DTD SVG 1.1//EN" "http://www.w3.org/Graphics/SVG/1.1/DTD/svg11.dtd">
<?xml version="1.0" encoding="iso-8859-1"?>
<svg version="1.1"
     xmlns="http://www.w3.org/2000/svg"
     xmlns:xlink="http://www.w3.org/1999/xlink"
     xml:space="preserve"

     viewBox="0 0 512 512"

     style="transition: all .5s; width: var(--sizeIcon, 32px); height: var(--sizeIcon, 32px); fill: var(--colorIcon, currentColor); stroke: var(--colorIcon, currentColor);">
  <path d="M352,153H40.247a24.028,24.028,0,0,0-24,24V458a24.028,24.028,0,0,0,24,24H352a24.028,24.028,0,0,0,24-24V177A24.028,24.028,0,0,0,352,153Zm-8,32v45.22H48.247V185ZM48.247,450V262.22H344V450Z" />
  <path d="M472,32H152a24.028,24.028,0,0,0-24,24v65h32V64H464V339.143H408v32h64a24.028,24.028,0,0,0,24-24V56A24.028,24.028,0,0,0,472,32Z" />
</svg>
